<svg width="184.84mm" height="42.144mm" version="1.1" viewBox="0 0 184.84 42.144" xmlns="http://www.w3.org/2000/svg">
	<g transform="translate(-8.809 -118.77)">
		<g transform="matrix(.52225 0 0 .52225 -25.662 62.288)" style="fill:#f2f2f2">
			<path transform="scale(.26458)" d="m533.89 514.5c-111.04 212.89-202.08-62.081-281.69 102.95 0.0705 0.17435 0.6457 2.6855 0.7168 2.8594 22.367 54.727 75.63 90.951 138.4 90.951 82.843 0 150-67.157 150-150 0-16.328-2.6103-32.045-7.4336-46.76z" style="fill:#f2f2f2;stroke-opacity:.92073;stroke-width:5.0003;stroke:#dde3f1"/>
			<path transform="scale(.26458)" d="m391.32 411.26c-56.308 0-105.37 31.026-131.02 76.914 88.957 163.42 93.692-130.45 262.86 1.4844-25.418-46.702-74.927-78.398-131.84-78.398z" style="fill:#f2f2f2;stroke-opacity:.92073;stroke-width:5.0003;stroke:#dde3f1"/>
		</g>
		<text x="51.379799" y="152.45332" style="fill:#000000;font-family:sans-serif;font-size:25.397px;letter-spacing:0px;line-height:1.25;stroke-width:.29762;word-spacing:0px" xml:space="preserve"><tspan x="51.379799" y="152.45332" style="font-family:'Noto Serif CJK JP';font-size:32.54px;font-weight:bold;stroke-width:.29762">Everlogo</tspan></text>
	</g>
</svg>
